<?xml version="1.0" encoding="utf-8"?>
<!-- Generator: Adobe Illustrator 16.0.0, SVG Export Plug-In . SVG Version: 6.00 Build 0)  -->
<!DOCTYPE svg PUBLIC "-//W3C//DTD SVG 1.1//EN" "http://www.w3.org/Graphics/SVG/1.1/DTD/svg11.dtd">
<svg version="1.1" id="Layer_1" xmlns="http://www.w3.org/2000/svg" xmlns:xlink="http://www.w3.org/1999/xlink" x="0px" y="0px"
	 width="512px" height="512px" viewBox="0 0 512 512" enable-background="new 0 0 512 512" xml:space="preserve">
<path display="none" fill="none" stroke="#FFC266" stroke-width="12" stroke-miterlimit="10" d="M30.077,322.422v7.615
	c0,37.863,40.928,76.154,91.377,76.154h269.088c50.461,0,91.381-38.31,91.381-76.154v-7.615c0-35.191-35.428-79.389-80.973-83.282
	c-1.013-31.46-26.776-56.649-58.464-56.649c-12.31,0-23.717,3.816-33.137,10.288c-18.07-40.248-58.4-68.345-105.38-68.345
	c-63.795,0-115.507,51.698-115.507,115.509c0,1.144,0.144,2.231,0.176,3.352C54.417,253.21,30.077,293.281,30.077,322.422
	L30.077,322.422z"/>
<line display="none" fill="none" stroke="#FFFFFF" stroke-width="80" stroke-miterlimit="10" x1="96.604" y1="60.312" x2="288.596" y2="350.394"/>
<g id="logo-bg-dark">
	<rect id="bg" x="7.727" y="9.312" fill="none" width="512" height="512"/>
	<g id="test-tube">
		<path id="shadow_2_" opacity="0.3" enable-background="new    " d="M276.746,68.463c-0.184,0.737-0.188,1.529-0.033,2.365
			c0,0,2.51,16.642-0.338,24.048L155.37,409.51l0.009,0.004c-8.636,23.107,2.937,48.91,26.014,57.787
			c23.077,8.875,48.955-2.524,58.03-25.465l0.011,0.006l121.005-314.635c2.365-6.155,15.859-18.079,15.859-18.079
			c0.678-0.516,1.201-1.108,1.561-1.778l0.06-0.122c0.063-0.132,0.142-0.258,0.192-0.395c3.119-8.113-17.006-23.405-44.952-34.152
			c-27.947-10.748-53.134-12.884-56.252-4.771c-0.054,0.137-0.085,0.281-0.123,0.422L276.746,68.463z"/>
		
			<linearGradient id="tube_3_" gradientUnits="userSpaceOnUse" x1="-265.5576" y1="106.689" x2="-188.8863" y2="30.0175" gradientTransform="matrix(0.9138 -0.4062 -0.4062 -0.9138 489.1848 237.4814)">
			<stop  offset="0" style="stop-color:#919191"/>
			<stop  offset="1" style="stop-color:#FFFFFF"/>
		</linearGradient>
		<path id="tube_2_" fill="url(#tube_3_)" d="M273.25,65.789c-0.188,0.737-0.189,1.529-0.033,2.365c0,0,2.508,16.642-0.34,24.048
			L151.871,406.834l0.011,0.004c-8.635,23.109,2.937,48.912,26.014,57.787c23.075,8.875,48.955-2.523,58.03-25.465l0.011,0.006
			l121.004-314.634c2.365-6.155,15.86-18.079,15.86-18.079c0.677-0.516,1.202-1.107,1.56-1.778l0.06-0.122
			c0.063-0.131,0.142-0.258,0.192-0.395c3.119-8.113-17.006-23.404-44.95-34.152c-27.949-10.748-53.134-12.884-56.254-4.771
			c-0.054,0.137-0.082,0.281-0.121,0.422L273.25,65.789z"/>
		<path id="liquid" fill="#FF9900" d="M311.207,208.126l-87.263,226.896l0.057,0.021c-6.436,16.262-25.166,24.723-41.781,18.334
			c-16.615-6.393-25.608-25.514-19.488-41.898l0,0l55.758-144.979c0,0,6.964-11.233,20.637-19.226
			c13.673-7.991,24.949-6.305,40.132-13.053C294.441,227.471,311.207,208.126,311.207,208.126z"/>
		
			<ellipse id="top" transform="matrix(-0.3589 0.9334 -0.9334 -0.3589 519.6813 -185.9285)" fill="#333333" cx="323.694" cy="85.511" rx="8.851" ry="33.652"/>
		<path id="side-reflection" opacity="0.3" fill="#FFFFFF" enable-background="new    " d="M273.216,68.153
			c0,0,2.472,16.737-0.341,24.048L151.871,406.834l0.011,0.004c-8.635,23.109,2.937,48.912,26.014,57.787
			c4.005,1.539,8.092,2.453,12.164,2.82c-15.556-11.701-22.23-32.631-15.093-51.729l-0.011-0.004l118.604-308.391
			C293.561,107.321,277.416,92.162,273.216,68.153z"/>
		<g id="bubbles">
			<circle opacity="0.5" fill="#FFFFFF" enable-background="new    " cx="234.258" cy="271.118" r="3.507"/>
			<circle opacity="0.5" fill="#FFFFFF" enable-background="new    " cx="257.241" cy="296.539" r="5.285"/>
			<circle opacity="0.5" fill="#FFFFFF" enable-background="new    " cx="222.156" cy="326.771" r="9.915"/>
			<circle opacity="0.5" fill="#FFFFFF" enable-background="new    " cx="206.102" cy="345.106" r="5.286"/>
			<circle opacity="0.5" fill="#FFFFFF" enable-background="new    " cx="227.157" cy="384.32" r="3.506"/>
		</g>
	</g>
</g>
<g id="logo-bg-light" display="none">
	<g id="test-tube_1_" display="inline">
		<path id="shadow_1_" opacity="0.1" enable-background="new    " d="M269.02,59.151c-0.184,0.737-0.188,1.529-0.033,2.365
			c0,0,2.51,16.642-0.338,24.048L147.643,400.197l0.009,0.004c-8.636,23.107,2.937,48.911,26.014,57.787
			c23.077,8.875,48.955-2.524,58.03-25.464l0.011,0.005l121.005-314.634c2.366-6.155,15.86-18.079,15.86-18.079
			c0.677-0.516,1.201-1.108,1.56-1.778l0.06-0.122c0.064-0.132,0.143-0.258,0.192-0.395c3.12-8.113-17.005-23.405-44.952-34.152
			c-27.947-10.748-53.133-12.884-56.252-4.771c-0.054,0.137-0.084,0.281-0.123,0.422L269.02,59.151z"/>
		
			<linearGradient id="tube_4_" gradientUnits="userSpaceOnUse" x1="-268.8364" y1="118.3359" x2="-192.1656" y2="41.6651" gradientTransform="matrix(0.9138 -0.4062 -0.4062 -0.9138 489.1848 237.4814)">
			<stop  offset="0" style="stop-color:#919191"/>
			<stop  offset="1" style="stop-color:#FFFFFF"/>
		</linearGradient>
		<path id="tube_1_" fill="url(#tube_4_)" d="M265.523,56.477c-0.188,0.737-0.19,1.529-0.033,2.365c0,0,2.508,16.642-0.34,24.048
			L144.144,397.522l0.011,0.004c-8.635,23.107,2.937,48.911,26.014,57.786c23.075,8.875,48.955-2.523,58.03-25.466l0.011,0.007
			L349.215,115.22c2.365-6.155,15.86-18.079,15.86-18.079c0.677-0.516,1.202-1.107,1.56-1.778l0.059-0.122
			c0.064-0.131,0.143-0.258,0.192-0.395c3.12-8.113-17.005-23.404-44.95-34.152c-27.949-10.748-53.134-12.884-56.254-4.771
			c-0.053,0.137-0.082,0.281-0.121,0.422L265.523,56.477z"/>
		
			<linearGradient id="liquid_2_" gradientUnits="userSpaceOnUse" x1="-297.6641" y1="59.8477" x2="-251.2469" y2="13.4308" gradientTransform="matrix(0.9138 -0.4062 -0.4062 -0.9138 489.1848 237.4814)">
			<stop  offset="0" style="stop-color:#990000"/>
			<stop  offset="1" style="stop-color:#E80000"/>
		</linearGradient>
		<path id="liquid_1_" fill="url(#liquid_2_)" d="M303.48,198.814L216.218,425.71l0.057,0.021
			c-6.436,16.262-25.166,24.723-41.781,18.333c-16.615-6.393-25.608-25.515-19.488-41.897l0,0l55.758-144.981
			c0,0,6.964-11.231,20.637-19.226c13.673-7.991,24.949-6.305,40.132-13.053C286.715,218.159,303.48,198.814,303.48,198.814z"/>
		
			<ellipse id="top_1_" transform="matrix(-0.3589 0.9334 -0.9334 -0.3589 500.4929 -191.3686)" fill="#333333" cx="315.968" cy="76.199" rx="8.851" ry="33.651"/>
		<path id="side-reflection_1_" opacity="0.3" fill="#FFFFFF" enable-background="new    " d="M265.489,58.841
			c0,0,2.471,16.737-0.341,24.048L144.144,397.522l0.011,0.004c-8.635,23.107,2.937,48.911,26.014,57.786
			c4.005,1.538,8.092,2.453,12.164,2.82c-15.556-11.702-22.23-32.632-15.093-51.729l-0.011-0.004L285.833,98.009
			C285.833,98.009,269.689,82.85,265.489,58.841z"/>
		<g id="bubbles_1_">
			<circle opacity="0.5" fill="#FFFFFF" enable-background="new    " cx="226.531" cy="261.806" r="3.506"/>
			<circle opacity="0.5" fill="#FFFFFF" enable-background="new    " cx="249.514" cy="287.227" r="5.285"/>
			<circle opacity="0.5" fill="#FFFFFF" enable-background="new    " cx="214.429" cy="317.459" r="9.915"/>
			<circle opacity="0.5" fill="#FFFFFF" enable-background="new    " cx="198.375" cy="335.795" r="5.286"/>
			<circle opacity="0.5" fill="#FFFFFF" enable-background="new    " cx="219.43" cy="375.008" r="3.506"/>
		</g>
	</g>
</g>
</svg>
