<?xml version="1.0" standalone="no"?>
<!DOCTYPE svg PUBLIC "-//W3C//DTD SVG 20010904//EN"
 "http://www.w3.org/TR/2001/REC-SVG-20010904/DTD/svg10.dtd">
<svg version="1.0" xmlns="http://www.w3.org/2000/svg"
 width="700.000000pt" height="700.000000pt" viewBox="0 0 700.000000 700.000000"
 preserveAspectRatio="xMidYMid meet">
<metadata>
Created by potrace 1.11, written by Peter Selinger 2001-2013
</metadata>
<g transform="translate(0.000000,700.000000) scale(0.100000,-0.100000)"
fill="#000000" stroke="none">
<path d="M3888 6175 c-2 -2 -22 -5 -45 -8 -23 -2 -54 -12 -68 -21 -26 -17 -49
-61 -40 -75 2 -5 7 -55 10 -113 7 -108 -4 -203 -30 -261 -8 -18 -25 -61 -39
-97 -13 -36 -45 -119 -71 -185 -25 -66 -60 -156 -77 -200 -16 -44 -34 -89 -39
-100 -4 -11 -50 -128 -100 -260 -51 -132 -119 -310 -152 -395 -33 -85 -66
-173 -74 -195 -8 -22 -20 -54 -28 -72 -8 -17 -15 -36 -15 -42 0 -6 -4 -19 -10
-29 -5 -9 -51 -125 -101 -257 -50 -132 -94 -249 -99 -260 -15 -33 -826 -2146
-845 -2200 -65 -192 -11 -436 132 -595 62 -69 207 -168 236 -162 4 1 7 -3 7
-8 0 -5 3 -9 8 -9 23 4 52 -2 47 -10 -3 -5 0 -13 6 -17 8 -5 9 -3 4 6 -6 10
-2 12 16 7 13 -4 28 -7 32 -7 5 0 6 -4 3 -8 -3 -5 1 -9 9 -9 8 0 12 4 10 8 -7
10 77 5 94 -5 10 -6 12 -5 7 2 -4 7 -2 12 3 12 6 0 11 -6 11 -14 0 -8 4 -17 9
-20 5 -4 7 4 4 15 -5 19 -3 21 20 17 15 -3 27 -2 27 2 0 5 13 7 30 6 16 -1 31
1 32 6 2 4 12 9 23 11 11 2 47 16 80 32 33 15 63 27 68 27 4 -1 7 2 7 7 0 5
12 16 26 26 19 12 29 14 39 5 10 -9 19 -9 32 0 16 9 15 10 -6 4 -17 -4 -21 -3
-16 6 5 9 4 11 -3 6 -7 -4 -12 -3 -12 3 0 5 9 13 20 16 11 3 20 11 20 16 0 6
4 7 10 4 5 -3 7 0 4 8 -3 8 2 17 12 21 12 5 15 2 10 -9 -3 -10 -2 -13 5 -10 5
4 7 15 4 26 -4 11 -2 19 4 19 6 0 11 6 11 14 0 8 9 21 20 29 11 8 17 17 13 20
-3 4 -2 7 3 7 6 0 15 -5 22 -12 7 -7 12 -9 12 -6 0 4 -7 13 -15 22 -13 13 -13
16 1 30 8 9 13 16 9 16 -3 0 2 14 10 30 9 17 20 28 25 25 5 -3 12 0 16 6 4 7
3 9 -4 5 -6 -3 -13 -2 -17 4 -3 5 -3 10 2 10 4 0 9 12 10 27 0 14 8 30 17 35
9 5 16 14 16 21 0 7 -4 6 -10 -3 -5 -8 -10 -10 -10 -4 0 5 7 19 15 30 8 10 15
27 15 37 0 9 5 17 11 17 5 0 7 4 4 10 -3 5 3 27 14 48 11 22 17 42 14 46 -4 3
-1 6 6 6 7 0 10 4 6 9 -9 15 23 40 45 34 11 -3 20 -1 20 4 0 6 -11 9 -25 8
-14 -2 -25 1 -25 6 0 5 5 9 11 9 5 0 7 5 4 11 -4 6 1 17 11 25 11 9 14 13 8
10 -8 -4 -8 5 0 29 6 19 15 35 19 35 5 0 5 5 2 10 -3 6 -2 10 2 10 5 0 9 8 10
19 1 10 9 36 19 57 9 21 19 48 21 59 2 10 8 22 15 26 6 4 8 11 4 17 -4 6 4 21
16 33 13 12 17 19 11 15 -19 -11 -16 5 5 21 9 8 11 11 4 8 -10 -5 -10 0 2 23
9 17 16 38 16 47 0 8 4 15 8 15 4 0 8 8 9 18 1 9 10 35 19 57 10 22 18 44 18
48 1 4 6 11 11 15 6 4 11 16 11 27 1 11 14 52 29 90 15 39 36 95 47 124 11 30
27 61 36 69 9 7 12 11 5 8 -7 -4 -5 11 5 44 10 29 23 50 32 51 9 0 11 2 3 5
-14 6 -5 34 16 52 9 8 11 11 4 8 -7 -4 -3 15 9 46 11 29 29 78 40 108 11 30
24 59 29 65 5 5 9 17 9 28 0 10 4 16 9 13 5 -4 7 4 3 16 -3 14 -1 19 6 14 8
-4 10 -2 6 7 -3 8 0 18 5 22 6 3 9 11 6 16 -4 5 -2 9 4 9 6 0 8 6 5 14 -3 8 0
17 5 21 6 3 9 11 6 16 -4 5 -1 9 5 9 6 0 8 5 5 10 -3 6 -1 10 4 10 6 0 10 3 9
8 -4 11 24 92 31 88 3 -2 7 9 8 25 3 36 31 91 43 84 5 -3 12 0 16 6 4 7 3 9
-4 5 -15 -9 -26 12 -14 27 5 7 17 36 27 65 11 28 23 52 29 52 5 0 7 3 3 6 -8
9 14 67 32 82 9 8 10 11 3 7 -11 -6 -1 27 44 140 4 11 15 26 23 33 9 8 10 11
4 7 -17 -8 -17 -5 9 52 11 26 22 54 24 61 4 20 83 224 94 244 6 10 10 25 10
33 0 8 5 15 10 15 6 0 9 6 8 13 -2 6 3 11 10 9 6 -1 12 2 12 8 0 5 -4 10 -9
10 -17 0 2 42 23 50 11 5 16 9 9 9 -6 1 -10 7 -8 14 1 6 6 27 10 45 4 18 16
39 27 46 15 11 16 15 6 20 -10 5 -10 7 0 12 6 3 10 10 6 15 -3 5 0 9 6 9 6 0
10 6 8 13 -3 14 39 126 54 144 6 7 7 13 3 13 -4 0 -2 7 5 15 7 8 9 15 5 15 -4
0 -2 6 4 13 6 8 8 17 4 20 -3 4 -2 7 4 7 6 0 14 16 18 36 8 45 40 106 49 97 4
-4 4 0 1 9 -7 18 44 160 55 153 4 -2 6 6 5 18 -1 12 4 31 11 42 8 11 14 28 14
38 0 10 4 16 9 13 5 -3 12 1 15 10 3 8 2 12 -4 9 -17 -10 -11 7 8 22 9 8 12
12 5 8 -9 -4 -9 2 1 27 7 18 17 42 21 53 4 11 9 27 11 35 2 8 8 16 14 18 5 2
8 8 5 13 -3 5 0 19 7 31 7 13 11 27 10 31 -1 4 5 10 13 13 8 3 13 10 10 15 -8
12 6 60 15 54 4 -2 8 7 8 21 0 15 6 30 13 35 8 5 10 9 5 9 -5 0 -4 6 2 13 6 6
11 15 11 20 1 4 2 9 2 12 1 3 2 8 3 13 3 15 41 68 68 95 15 15 28 29 28 32 0
3 10 15 21 26 18 18 25 20 41 10 17 -10 18 -10 10 6 -13 25 -4 43 21 44 12 0
17 3 10 5 -7 3 0 16 19 34 23 23 29 36 26 62 -3 39 -8 46 -77 115 -214 213
-736 426 -1098 447 -34 2 -63 3 -65 1z"/>
<path d="M5140 5560 c0 -5 5 -10 10 -10 6 0 10 5 10 10 0 6 -4 10 -10 10 -5 0
-10 -4 -10 -10z"/>
<path d="M5102 5520 c0 -14 2 -19 5 -12 2 6 2 18 0 25 -3 6 -5 1 -5 -13z"/>
<path d="M5075 5460 c-3 -5 -1 -10 4 -10 6 0 11 5 11 10 0 6 -2 10 -4 10 -3 0
-8 -4 -11 -10z"/>
<path d="M5010 5411 c0 -7 -5 -9 -12 -5 -7 5 -8 3 -3 -5 5 -9 10 -10 18 -2 6
6 8 14 4 18 -4 3 -7 1 -7 -6z"/>
<path d="M4960 5396 c0 -2 7 -7 16 -10 8 -3 12 -2 9 4 -6 10 -25 14 -25 6z"/>
<path d="M4895 5279 c-6 -8 -4 -10 5 -4 10 6 12 4 6 -11 -6 -15 -5 -17 5 -6 9
9 10 15 2 23 -8 8 -13 7 -18 -2z"/>
<path d="M4875 5220 c-3 -5 -3 -10 2 -10 4 0 1 -5 -7 -11 -10 -7 -11 -9 -2 -7
8 2 13 7 12 12 -1 5 4 13 12 17 9 6 9 9 1 9 -6 0 -15 -4 -18 -10z"/>
<path d="M4850 5130 c-9 -6 -10 -10 -3 -10 6 0 15 5 18 10 8 12 4 12 -15 0z"/>
<path d="M4834 5079 c-3 -6 -1 -16 6 -22 10 -9 11 -9 5 2 -4 8 -2 17 6 22 9 6
10 9 2 9 -6 0 -15 -5 -19 -11z"/>
<path d="M4790 5003 c0 -6 8 -17 18 -24 16 -13 16 -13 2 6 -8 11 -16 22 -17
24 -2 2 -3 0 -3 -6z"/>
<path d="M4766 4957 c3 -10 9 -15 12 -12 3 3 0 11 -7 18 -10 9 -11 8 -5 -6z"/>
<path d="M4750 4919 c0 -5 5 -7 10 -4 6 3 10 8 10 11 0 2 -4 4 -10 4 -5 0 -10
-5 -10 -11z"/>
<path d="M4756 4878 c3 -5 10 -6 15 -3 13 9 11 12 -6 12 -8 0 -12 -4 -9 -9z"/>
<path d="M4735 4840 c-3 -6 1 -7 9 -4 18 7 21 14 7 14 -6 0 -13 -4 -16 -10z"/>
<path d="M4735 4800 c-3 -5 -1 -10 4 -10 6 0 11 5 11 10 0 6 -2 10 -4 10 -3 0
-8 -4 -11 -10z"/>
<path d="M4690 4758 c0 -11 12 -10 30 2 12 7 10 9 -8 7 -12 0 -22 -5 -22 -9z"/>
<path d="M4671 4674 c0 -11 3 -14 6 -6 3 7 2 16 -1 19 -3 4 -6 -2 -5 -13z"/>
<path d="M4646 4638 c3 -4 9 -8 15 -8 5 0 9 4 9 8 0 5 -7 9 -15 9 -8 0 -12 -4
-9 -9z"/>
<path d="M4630 4605 c0 -8 2 -15 4 -15 2 0 6 7 10 15 3 8 1 15 -4 15 -6 0 -10
-7 -10 -15z"/>
<path d="M4630 4539 c0 -5 5 -7 10 -4 6 3 10 8 10 11 0 2 -4 4 -10 4 -5 0 -10
-5 -10 -11z"/>
<path d="M4595 4500 c-16 -7 -17 -9 -3 -9 9 -1 20 4 23 9 7 11 7 11 -20 0z"/>
<path d="M4575 4460 c-3 -5 0 -12 6 -16 8 -5 9 -3 4 6 -6 10 -4 12 8 7 9 -3
18 -3 21 1 3 4 -4 8 -14 9 -11 1 -22 -2 -25 -7z"/>
<path d="M4563 4403 c-7 -2 -13 -9 -13 -15 0 -7 5 -7 13 1 8 6 17 8 20 4 4 -3
7 -1 7 5 0 13 -7 14 -27 5z"/>
<path d="M4547 4335 c3 -8 9 -12 14 -9 12 7 11 11 -5 17 -10 4 -13 1 -9 -8z"/>
<path d="M4514 4295 c3 -23 12 -26 13 -5 1 11 -2 20 -7 20 -4 0 -7 -7 -6 -15z"/>
<path d="M4475 4221 c-3 -5 0 -13 6 -17 7 -4 9 -3 5 4 -3 5 0 13 6 15 9 4 10
6 1 6 -6 1 -14 -3 -18 -8z"/>
<path d="M4478 4163 c7 -3 16 -2 19 1 4 3 -2 6 -13 5 -11 0 -14 -3 -6 -6z"/>
<path d="M4440 4115 c-19 -22 -8 -25 13 -3 9 10 13 18 8 18 -5 0 -14 -7 -21
-15z"/>
<path d="M4455 4101 c-6 -11 13 -26 22 -17 4 3 1 6 -6 6 -7 0 -9 5 -6 10 3 6
4 10 1 10 -3 0 -7 -4 -11 -9z"/>
<path d="M4435 4070 c-3 -5 -1 -10 4 -10 6 0 11 5 11 10 0 6 -2 10 -4 10 -3 0
-8 -4 -11 -10z"/>
<path d="M4416 3953 c-6 -14 -5 -15 5 -6 7 7 10 15 7 18 -3 3 -9 -2 -12 -12z"/>
<path d="M4381 3933 c-1 -17 16 -25 25 -12 4 7 3 9 -4 5 -5 -3 -13 0 -15 6 -4
9 -6 10 -6 1z"/>
<path d="M4375 3903 c3 -3 -2 -11 -10 -17 -11 -8 -12 -15 -4 -26 9 -12 10 -12
5 4 -5 13 -2 17 8 13 14 -6 17 17 3 28 -4 3 -5 2 -2 -2z"/>
<path d="M4336 3845 c-3 -8 -1 -15 4 -15 6 0 10 7 10 15 0 8 -2 15 -4 15 -2 0
-6 -7 -10 -15z"/>
<path d="M4296 3751 c-3 -4 6 -6 19 -3 14 2 25 6 25 8 0 8 -39 4 -44 -5z"/>
<path d="M4284 3719 c-3 -6 -1 -16 5 -22 9 -9 10 -7 5 7 -6 15 -4 17 6 11 9
-5 11 -4 6 3 -9 15 -13 15 -22 1z"/>
<path d="M4263 3657 c-3 -6 -1 -7 5 -3 6 3 12 -2 14 -11 3 -16 5 -15 10 3 5
22 -17 30 -29 11z"/>
<path d="M4239 3593 c-13 -17 -13 -17 6 -3 11 8 22 16 24 17 2 2 0 3 -6 3 -6
0 -17 -8 -24 -17z"/>
<path d="M4254 3579 c-4 -7 -3 -9 4 -5 5 3 13 0 15 -6 4 -9 6 -10 6 -1 1 17
-16 25 -25 12z"/>
<path d="M4228 3543 c6 -2 10 -9 7 -13 -3 -5 0 -12 6 -16 8 -4 9 -3 5 4 -4 7
-1 12 6 12 9 0 9 3 -2 10 -8 5 -19 9 -25 9 -5 0 -4 -3 3 -6z"/>
<path d="M4216 3474 c-5 -14 -4 -15 9 -4 17 14 19 20 6 20 -5 0 -12 -7 -15
-16z"/>
<path d="M4180 3446 c0 -7 40 -14 44 -7 3 4 -6 8 -20 9 -13 1 -24 0 -24 -2z"/>
<path d="M4170 3410 c-6 -11 -8 -20 -6 -20 3 0 10 9 16 20 6 11 8 20 6 20 -3
0 -10 -9 -16 -20z"/>
<path d="M4195 3411 c-3 -5 -2 -12 3 -15 5 -3 9 1 9 9 0 17 -3 19 -12 6z"/>
<path d="M4175 3360 c-3 -6 1 -7 9 -4 18 7 21 14 7 14 -6 0 -13 -4 -16 -10z"/>
<path d="M4145 3279 c-4 -6 -5 -12 -2 -15 2 -3 7 2 10 11 7 17 1 20 -8 4z"/>
<path d="M4120 3246 c0 -2 7 -7 16 -10 8 -3 12 -2 9 4 -6 10 -25 14 -25 6z"/>
<path d="M4116 3213 c-6 -14 -5 -15 5 -6 7 7 10 15 7 18 -3 3 -9 -2 -12 -12z"/>
<path d="M4054 3059 c-4 -7 -3 -9 4 -5 5 3 13 0 15 -6 4 -9 6 -10 6 -1 1 17
-16 25 -25 12z"/>
<path d="M4020 3013 c0 -6 8 -17 18 -24 16 -13 16 -13 2 6 -8 11 -16 22 -17
24 -2 2 -3 0 -3 -6z"/>
<path d="M4017 2961 c-4 -17 -3 -21 5 -13 5 5 8 16 6 23 -3 8 -7 3 -11 -10z"/>
<path d="M4010 2919 c0 -5 5 -7 10 -4 6 3 10 8 10 11 0 2 -4 4 -10 4 -5 0 -10
-5 -10 -11z"/>
<path d="M3988 2893 c7 -3 16 -2 19 1 4 3 -2 6 -13 5 -11 0 -14 -3 -6 -6z"/>
<path d="M3965 2859 c-4 -6 -4 -13 -1 -16 3 -4 6 -1 6 6 0 7 5 9 12 5 7 -4 8
-3 4 4 -9 15 -13 15 -21 1z"/>
<path d="M3950 2806 c0 -2 7 -6 15 -10 8 -3 15 -1 15 4 0 6 -7 10 -15 10 -8 0
-15 -2 -15 -4z"/>
<path d="M3935 2779 c-5 -8 -4 -10 3 -5 8 5 12 -1 13 -16 1 -18 2 -19 6 -4 6
23 -12 43 -22 25z"/>
<path d="M3918 2688 c2 -10 6 -18 7 -18 1 0 5 8 7 18 3 11 0 19 -7 19 -7 0
-10 -8 -7 -19z"/>
<path d="M3901 2674 c0 -11 3 -14 6 -6 3 7 2 16 -1 19 -3 4 -6 -2 -5 -13z"/>
<path d="M3875 2650 c-3 -5 -2 -18 4 -27 7 -14 9 -12 8 10 -2 30 -3 31 -12 17z"/>
<path d="M3879 2595 c-1 -3 -2 -8 -3 -12 -1 -5 -5 -15 -10 -23 -7 -12 -6 -13
4 -3 13 12 23 43 14 43 -2 0 -5 -2 -5 -5z"/>
<path d="M3839 2558 c-8 -27 -5 -36 9 -30 10 4 12 7 4 10 -7 2 -10 8 -6 13 3
5 3 9 0 9 -3 0 -6 -1 -7 -2z"/>
<path d="M3799 2433 c-13 -16 -12 -17 4 -4 9 7 17 15 17 17 0 8 -8 3 -21 -13z"/>
<path d="M3811 2394 c0 -11 3 -14 6 -6 3 7 2 16 -1 19 -3 4 -6 -2 -5 -13z"/>
<path d="M3772 2320 c0 -14 2 -19 5 -12 2 6 2 18 0 25 -3 6 -5 1 -5 -13z"/>
<path d="M3756 2278 c3 -5 10 -6 15 -3 13 9 11 12 -6 12 -8 0 -12 -4 -9 -9z"/>
<path d="M3734 2239 c-4 -7 -3 -9 4 -5 5 3 13 0 15 -6 4 -9 6 -10 6 -1 1 17
-16 25 -25 12z"/>
<path d="M3709 2203 c-13 -17 -13 -17 6 -3 11 8 22 16 24 17 2 2 0 3 -6 3 -6
0 -17 -8 -24 -17z"/>
<path d="M3725 2182 c-13 -9 -17 -32 -6 -32 5 0 11 9 14 20 6 22 6 22 -8 12z"/>
<path d="M3694 2142 c3 -6 -2 -13 -11 -15 -16 -4 -16 -5 -1 -6 21 -1 32 15 17
25 -7 4 -9 3 -5 -4z"/>
<path d="M3668 2063 c6 -2 18 -2 25 0 6 3 1 5 -13 5 -14 0 -19 -2 -12 -5z"/>
<path d="M3656 2038 c3 -5 10 -6 15 -3 13 9 11 12 -6 12 -8 0 -12 -4 -9 -9z"/>
<path d="M3650 2010 c-9 -6 -10 -10 -3 -10 6 0 15 5 18 10 8 12 4 12 -15 0z"/>
<path d="M3637 1955 c-4 -8 -1 -17 6 -21 7 -4 9 -4 5 1 -4 4 -3 14 3 22 7 8 8
13 1 13 -5 0 -12 -7 -15 -15z"/>
<path d="M3590 1899 c0 -5 5 -7 10 -4 6 3 10 8 10 11 0 2 -4 4 -10 4 -5 0 -10
-5 -10 -11z"/>
<path d="M3535 1720 c-3 -6 1 -7 9 -4 18 7 21 14 7 14 -6 0 -13 -4 -16 -10z"/>
<path d="M3510 1660 c0 -5 5 -10 10 -10 6 0 10 5 10 10 0 6 -4 10 -10 10 -5 0
-10 -4 -10 -10z"/>
<path d="M3489 1597 c6 -8 7 -18 3 -22 -4 -5 -2 -5 5 -1 14 8 6 36 -9 36 -7 0
-6 -5 1 -13z"/>
<path d="M3470 1570 c6 -11 13 -20 16 -20 2 0 0 9 -6 20 -6 11 -13 20 -16 20
-2 0 0 -9 6 -20z"/>
<path d="M3453 1545 c0 -8 4 -12 9 -9 5 3 6 10 3 15 -9 13 -12 11 -12 -6z"/>
<path d="M3475 1529 c-4 -6 -5 -12 -2 -15 2 -3 7 2 10 11 7 17 1 20 -8 4z"/>
<path d="M3435 1470 c3 -6 1 -10 -6 -10 -7 0 -10 -3 -6 -6 3 -3 13 -2 22 4 16
8 16 9 1 15 -10 4 -15 3 -11 -3z"/>
<path d="M3406 1401 c-3 -5 1 -11 9 -14 9 -4 12 -1 8 9 -6 16 -10 17 -17 5z"/>
<path d="M3374 1302 c4 -7 3 -12 -3 -12 -6 0 -15 -9 -21 -20 -9 -16 -8 -18 5
-14 9 4 13 9 11 12 -3 3 2 10 11 17 13 9 13 14 3 20 -9 5 -11 4 -6 -3z"/>
<path d="M3335 1191 c-3 -5 0 -13 6 -17 7 -4 9 -3 5 4 -3 5 0 13 6 15 9 4 10
6 1 6 -6 1 -14 -3 -18 -8z"/>
<path d="M3314 1162 c1 -16 6 -29 12 -29 9 0 9 8 2 29 -13 35 -15 35 -14 0z"/>
<path d="M3276 1047 c3 -10 9 -15 12 -12 3 3 0 11 -7 18 -10 9 -11 8 -5 -6z"/>
<path d="M3270 999 c0 -5 5 -7 10 -4 6 3 10 8 10 11 0 2 -4 4 -10 4 -5 0 -10
-5 -10 -11z"/>
<path d="M3235 970 c3 -5 8 -10 11 -10 2 0 4 5 4 10 0 6 -5 10 -11 10 -5 0 -7
-4 -4 -10z"/>
<path d="M3230 941 c0 -6 4 -12 8 -15 5 -3 9 1 9 9 0 8 -4 15 -9 15 -4 0 -8
-4 -8 -9z"/>
<path d="M3190 861 c0 -6 5 -13 12 -17 6 -4 8 -3 4 4 -3 5 0 13 6 15 8 3 6 6
-4 6 -10 1 -18 -3 -18 -8z"/>
<path d="M3170 840 c0 -5 5 -10 11 -10 5 0 7 5 4 10 -3 6 -8 10 -11 10 -2 0
-4 -4 -4 -10z"/>
<path d="M3154 816 c1 -8 5 -18 8 -22 4 -3 5 1 4 10 -1 8 -5 18 -8 22 -4 3 -5
-1 -4 -10z"/>
<path d="M3119 778 c-5 -18 -6 -38 -1 -34 7 8 12 36 6 36 -2 0 -4 -1 -5 -2z"/>
<path d="M3036 707 c3 -10 9 -15 12 -12 3 3 0 11 -7 18 -10 9 -11 8 -5 -6z"/>
<path d="M3020 691 c0 -6 4 -13 10 -16 6 -3 7 1 4 9 -7 18 -14 21 -14 7z"/>
<path d="M2952 671 c-11 -6 -9 -9 6 -13 15 -4 19 -2 15 8 -6 16 -4 16 -21 5z"/>
<path d="M2885 640 c-16 -7 -17 -9 -3 -9 9 -1 20 4 23 9 7 11 7 11 -20 0z"/>
<path d="M2934 642 c4 -3 14 -7 22 -8 9 -1 13 0 10 4 -4 3 -14 7 -22 8 -9 1
-13 0 -10 -4z"/>
<path d="M2781 594 c0 -11 3 -14 6 -6 3 7 2 16 -1 19 -3 4 -6 -2 -5 -13z"/>
<path d="M2735 580 c3 -5 8 -10 11 -10 2 0 4 5 4 10 0 6 -5 10 -11 10 -5 0 -7
-4 -4 -10z"/>
</g>
</svg>
